solid OpenSCAD_Model
  facet normal -0 0 1
    outer loop
      vertex 33.6118 3.06978 4
      vertex 35.1764 2.12363 4
      vertex 35.2263 3.06978 4
    endloop
  endfacet
  facet normal 0 0 1
    outer loop
      vertex 35.1764 2.12363 4
      vertex 33.6118 3.06978 4
      vertex 33.6118 2.12363 4
    endloop
  endfacet
  facet normal 0 0 1
    outer loop
      vertex 35.2263 3.06978 4
      vertex 67 4 4
      vertex 35.2263 3.56453 4
    endloop
  endfacet
  facet normal 0 0 1
    outer loop
      vertex 67 4 4
      vertex 32.9717 3.56453 4
      vertex 35.2263 3.56453 4
    endloop
  endfacet
  facet normal 0 0 1
    outer loop
      vertex 32.9717 3.56453 4
      vertex 2 4 4
      vertex 32.9717 0.507004 4
    endloop
  endfacet
  facet normal -0 0 1
    outer loop
      vertex 2 4 4
      vertex 32.9717 3.56453 4
      vertex 67 4 4
    endloop
  endfacet
  facet normal 0 0 1
    outer loop
      vertex 67 4 4
      vertex 35.2263 3.06978 4
      vertex 67 0 4
    endloop
  endfacet
  facet normal -0 0 1
    outer loop
      vertex 35.1764 2.12363 4
      vertex 67 0 4
      vertex 35.2263 3.06978 4
    endloop
  endfacet
  facet normal -0 0 1
    outer loop
      vertex 35.1764 1.62889 4
      vertex 67 0 4
      vertex 35.1764 2.12363 4
    endloop
  endfacet
  facet normal 0 0 1
    outer loop
      vertex 33.6118 0.507004 4
      vertex 35.1764 1.62889 4
      vertex 33.6118 1.62889 4
    endloop
  endfacet
  facet normal 0 0 1
    outer loop
      vertex 35.1764 1.62889 4
      vertex 33.6118 0.507004 4
      vertex 67 0 4
    endloop
  endfacet
  facet normal -0 0 1
    outer loop
      vertex 32.9717 0.507004 4
      vertex 67 0 4
      vertex 33.6118 0.507004 4
    endloop
  endfacet
  facet normal 0 0 1
    outer loop
      vertex 32.9717 0.507004 4
      vertex 2 0 4
      vertex 67 0 4
    endloop
  endfacet
  facet normal 0 0 1
    outer loop
      vertex 2 0 4
      vertex 32.9717 0.507004 4
      vertex 2 4 4
    endloop
  endfacet
  facet normal 0 0 -1
    outer loop
      vertex 2 0 0
      vertex 67 4 0
      vertex 67 0 0
    endloop
  endfacet
  facet normal -0 0 -1
    outer loop
      vertex 67 4 0
      vertex 2 0 0
      vertex 2 4 0
    endloop
  endfacet
  facet normal 0 -1 0
    outer loop
      vertex 2 0 0
      vertex 67 0 4
      vertex 2 0 4
    endloop
  endfacet
  facet normal 0 -1 -0
    outer loop
      vertex 67 0 4
      vertex 2 0 0
      vertex 67 0 0
    endloop
  endfacet
  facet normal 0 1 -0
    outer loop
      vertex 67 4 0
      vertex 2 4 4
      vertex 67 4 4
    endloop
  endfacet
  facet normal 0 1 0
    outer loop
      vertex 2 4 4
      vertex 67 4 0
      vertex 2 4 0
    endloop
  endfacet
  facet normal -0.316228 0.948683 0
    outer loop
      vertex 2 4 4
      vertex 0.799999 3.6 0.4
      vertex 0.799999 3.6 3.6
    endloop
  endfacet
  facet normal -0.316228 0.948683 0
    outer loop
      vertex 0.799999 3.6 0.4
      vertex 2 4 4
      vertex 2 4 0
    endloop
  endfacet
  facet normal -0.316228 0 0.948683
    outer loop
      vertex 0.799999 3.6 3.6
      vertex 2 0 4
      vertex 2 4 4
    endloop
  endfacet
  facet normal -0.316228 0 0.948683
    outer loop
      vertex 2 0 4
      vertex 0.799999 3.6 3.6
      vertex 0.799999 0.4 3.6
    endloop
  endfacet
  facet normal -0.316228 -0.948683 0
    outer loop
      vertex 0.799999 0.4 0.4
      vertex 2 0 4
      vertex 0.799999 0.4 3.6
    endloop
  endfacet
  facet normal -0.316228 -0.948683 -0
    outer loop
      vertex 2 0 4
      vertex 0.799999 0.4 0.4
      vertex 2 0 0
    endloop
  endfacet
  facet normal -1 0 0
    outer loop
      vertex 0.799999 0.4 0.4
      vertex 0.799999 3.6 3.6
      vertex 0.799999 3.6 0.4
    endloop
  endfacet
  facet normal -1 -0 0
    outer loop
      vertex 0.799999 3.6 3.6
      vertex 0.799999 0.4 0.4
      vertex 0.799999 0.4 3.6
    endloop
  endfacet
  facet normal -0.316228 0 -0.948683
    outer loop
      vertex 0.799999 0.4 0.4
      vertex 2 4 0
      vertex 2 0 0
    endloop
  endfacet
  facet normal -0.316228 0 -0.948683
    outer loop
      vertex 2 4 0
      vertex 0.799999 0.4 0.4
      vertex 0.799999 3.6 0.4
    endloop
  endfacet
  facet normal 1 -0 0
    outer loop
      vertex 68.2 0.4 3.6
      vertex 68.2 3.6 0.4
      vertex 68.2 3.6 3.6
    endloop
  endfacet
  facet normal 1 0 0
    outer loop
      vertex 68.2 3.6 0.4
      vertex 68.2 0.4 3.6
      vertex 68.2 0.4 0.4
    endloop
  endfacet
  facet normal 0.316228 0 -0.948683
    outer loop
      vertex 67 0 0
      vertex 68.2 3.6 0.4
      vertex 68.2 0.4 0.4
    endloop
  endfacet
  facet normal 0.316228 0 -0.948683
    outer loop
      vertex 68.2 3.6 0.4
      vertex 67 0 0
      vertex 67 4 0
    endloop
  endfacet
  facet normal 0.316228 -0.948683 0
    outer loop
      vertex 67 0 4
      vertex 68.2 0.4 0.4
      vertex 68.2 0.4 3.6
    endloop
  endfacet
  facet normal 0.316228 -0.948683 0
    outer loop
      vertex 68.2 0.4 0.4
      vertex 67 0 4
      vertex 67 0 0
    endloop
  endfacet
  facet normal 0.316228 0.948683 -0
    outer loop
      vertex 68.2 3.6 0.4
      vertex 67 4 4
      vertex 68.2 3.6 3.6
    endloop
  endfacet
  facet normal 0.316228 0.948683 0
    outer loop
      vertex 67 4 4
      vertex 68.2 3.6 0.4
      vertex 67 4 0
    endloop
  endfacet
  facet normal 0.316228 0 0.948683
    outer loop
      vertex 67 4 4
      vertex 68.2 0.4 3.6
      vertex 68.2 3.6 3.6
    endloop
  endfacet
  facet normal 0.316228 0 0.948683
    outer loop
      vertex 68.2 0.4 3.6
      vertex 67 4 4
      vertex 67 0 4
    endloop
  endfacet
  facet normal 0 0 1
    outer loop
      vertex 35.2263 3.56453 4.45
      vertex 33.6118 3.06978 4.45
      vertex 35.2263 3.06978 4.45
    endloop
  endfacet
  facet normal 0 0 1
    outer loop
      vertex 32.9717 3.56453 4.45
      vertex 33.6118 2.12363 4.45
      vertex 33.6118 3.06978 4.45
    endloop
  endfacet
  facet normal 0 0 1
    outer loop
      vertex 32.9717 0.507004 4.45
      vertex 33.6118 2.12363 4.45
      vertex 32.9717 3.56453 4.45
    endloop
  endfacet
  facet normal -0 0 1
    outer loop
      vertex 32.9717 3.56453 4.45
      vertex 33.6118 3.06978 4.45
      vertex 35.2263 3.56453 4.45
    endloop
  endfacet
  facet normal 0 0 1
    outer loop
      vertex 33.6118 2.12363 4.45
      vertex 32.9717 0.507004 4.45
      vertex 33.6118 1.62889 4.45
    endloop
  endfacet
  facet normal 0 0 1
    outer loop
      vertex 33.6118 1.62889 4.45
      vertex 32.9717 0.507004 4.45
      vertex 33.6118 0.507004 4.45
    endloop
  endfacet
  facet normal -0 0 1
    outer loop
      vertex 33.6118 2.12363 4.45
      vertex 35.1764 1.62889 4.45
      vertex 35.1764 2.12363 4.45
    endloop
  endfacet
  facet normal 0 0 1
    outer loop
      vertex 35.1764 1.62889 4.45
      vertex 33.6118 2.12363 4.45
      vertex 33.6118 1.62889 4.45
    endloop
  endfacet
  facet normal 0 -1 0
    outer loop
      vertex 33.6118 1.62889 4
      vertex 35.1764 1.62889 4.45
      vertex 33.6118 1.62889 4.45
    endloop
  endfacet
  facet normal 0 -1 -0
    outer loop
      vertex 35.1764 1.62889 4.45
      vertex 33.6118 1.62889 4
      vertex 35.1764 1.62889 4
    endloop
  endfacet
  facet normal 1 -0 0
    outer loop
      vertex 35.1764 1.62889 4.45
      vertex 35.1764 2.12363 4
      vertex 35.1764 2.12363 4.45
    endloop
  endfacet
  facet normal 1 0 0
    outer loop
      vertex 35.1764 2.12363 4
      vertex 35.1764 1.62889 4.45
      vertex 35.1764 1.62889 4
    endloop
  endfacet
  facet normal 0 1 -0
    outer loop
      vertex 35.1764 2.12363 4
      vertex 33.6118 2.12363 4.45
      vertex 35.1764 2.12363 4.45
    endloop
  endfacet
  facet normal 0 1 0
    outer loop
      vertex 33.6118 2.12363 4.45
      vertex 35.1764 2.12363 4
      vertex 33.6118 2.12363 4
    endloop
  endfacet
  facet normal 1 -0 0
    outer loop
      vertex 33.6118 2.12363 4.45
      vertex 33.6118 3.06978 4
      vertex 33.6118 3.06978 4.45
    endloop
  endfacet
  facet normal 1 0 0
    outer loop
      vertex 33.6118 3.06978 4
      vertex 33.6118 2.12363 4.45
      vertex 33.6118 2.12363 4
    endloop
  endfacet
  facet normal 0 -1 0
    outer loop
      vertex 33.6118 3.06978 4
      vertex 35.2263 3.06978 4.45
      vertex 33.6118 3.06978 4.45
    endloop
  endfacet
  facet normal 0 -1 -0
    outer loop
      vertex 35.2263 3.06978 4.45
      vertex 33.6118 3.06978 4
      vertex 35.2263 3.06978 4
    endloop
  endfacet
  facet normal 1 -0 0
    outer loop
      vertex 35.2263 3.06978 4.45
      vertex 35.2263 3.56453 4
      vertex 35.2263 3.56453 4.45
    endloop
  endfacet
  facet normal 1 0 0
    outer loop
      vertex 35.2263 3.56453 4
      vertex 35.2263 3.06978 4.45
      vertex 35.2263 3.06978 4
    endloop
  endfacet
  facet normal 0 1 -0
    outer loop
      vertex 35.2263 3.56453 4
      vertex 32.9717 3.56453 4.45
      vertex 35.2263 3.56453 4.45
    endloop
  endfacet
  facet normal 0 1 0
    outer loop
      vertex 32.9717 3.56453 4.45
      vertex 35.2263 3.56453 4
      vertex 32.9717 3.56453 4
    endloop
  endfacet
  facet normal -1 0 0
    outer loop
      vertex 32.9717 0.507004 4
      vertex 32.9717 3.56453 4.45
      vertex 32.9717 3.56453 4
    endloop
  endfacet
  facet normal -1 -0 0
    outer loop
      vertex 32.9717 3.56453 4.45
      vertex 32.9717 0.507004 4
      vertex 32.9717 0.507004 4.45
    endloop
  endfacet
  facet normal 0 -1 0
    outer loop
      vertex 32.9717 0.507004 4
      vertex 33.6118 0.507004 4.45
      vertex 32.9717 0.507004 4.45
    endloop
  endfacet
  facet normal 0 -1 -0
    outer loop
      vertex 33.6118 0.507004 4.45
      vertex 32.9717 0.507004 4
      vertex 33.6118 0.507004 4
    endloop
  endfacet
  facet normal 1 -0 0
    outer loop
      vertex 33.6118 0.507004 4.45
      vertex 33.6118 1.62889 4
      vertex 33.6118 1.62889 4.45
    endloop
  endfacet
  facet normal 1 0 0
    outer loop
      vertex 33.6118 1.62889 4
      vertex 33.6118 0.507004 4.45
      vertex 33.6118 0.507004 4
    endloop
  endfacet
endsolid OpenSCAD_Model
